<?xml version="1.0" encoding="utf-8"?>
<svg version="1.1" xmlns:xlink="http://www.w3.org/1999/xlink" width="96px" height="92px" xmlns="http://www.w3.org/2000/svg">
  <defs>
    <mask fill="white" id="clip7">
      <path d="M 2633 1103  C 2607.47 1103  2587 1082.53  2587 1057  L 2587 1057  C 2587 1031.47  2607.47 1011  2633 1011  L 2637 1011  C 2662.53 1011  2683 1031.47  2683 1057  L 2683 1057  C 2683 1082.53  2662.53 1103  2637 1103  " fill-rule="evenodd" />
    </mask>
  </defs>
  <g transform="matrix(1 0 0 1 -2587 -1011 )">
    <path d="M 2587 1011  L 2683 1011  L 2683 1103  L 2587 1103  L 2587 1011  " fill-rule="nonzero" fill="#cccccc" stroke="none" mask="url(#clip7)" />
    <path d="M 2593 1017  L 2677 1017  L 2677 1097  L 2593 1097  L 2593 1017  " fill-rule="nonzero" fill="#ffffff" stroke="none" mask="url(#clip7)" />
    <path d="M 2643.82 1038.6  C 2639.956 1038.6  2636.92 1035.564  2636.92 1031.7  C 2636.92 1027.836  2639.956 1024.8  2643.82 1024.8  C 2647.684 1024.8  2650.72 1027.836  2650.72 1031.7  C 2650.72 1035.564  2647.684 1038.6  2643.82 1038.6  " fill-rule="nonzero" fill="#cccccc" stroke="none" mask="url(#clip7)" />
    <path d="M 2596 1095  L 2596 1053.75  L 2615.75 1035  L 2643.4 1051.875  L 2659.2 1046.25  L 2675 1051.875  L 2675 1095  L 2596 1095  " fill-rule="nonzero" fill="#169bd5" stroke="none" mask="url(#clip7)" />
  </g>
</svg>