<?xml version="1.0" encoding="utf-8"?>
<svg version="1.1" xmlns:xlink="http://www.w3.org/1999/xlink" width="41px" height="41px" xmlns="http://www.w3.org/2000/svg">
  <g transform="matrix(1 0 0 1 -2375 -1278 )">
    <path d="M 2395.5 1278  C 2406.98 1278  2416 1287.02  2416 1298.5  C 2416 1309.98  2406.98 1319  2395.5 1319  C 2384.02 1319  2375 1309.98  2375 1298.5  C 2375 1287.02  2384.02 1278  2395.5 1278  Z " fill-rule="nonzero" fill="#d9001b" stroke="none" />
    <path d="M 2395.5 1278.5  C 2406.7 1278.5  2415.5 1287.3  2415.5 1298.5  C 2415.5 1309.7  2406.7 1318.5  2395.5 1318.5  C 2384.3 1318.5  2375.5 1309.7  2375.5 1298.5  C 2375.5 1287.3  2384.3 1278.5  2395.5 1278.5  Z " stroke-width="1" stroke="#ffffff" fill="none" />
  </g>
</svg>