<svg t="1571032994164" class="icon" viewBox="0 0 1024 1024" version="1.1" xmlns="http://www.w3.org/2000/svg" p-id="5109" width="30" height="30"><path d="M460.8 102.4c198.4 0 358.4 160 358.4 358.4s-160 358.4-358.4 358.4-358.4-160-358.4-358.4 160-358.4 358.4-358.4m0-38.4C243.2 64 64 243.2 64 460.8s179.2 396.8 396.8 396.8 396.8-179.2 396.8-396.8S678.4 64 460.8 64zM940.8 960c-6.4 0-6.4 0-12.8-6.4L768 800c-6.4-6.4-6.4-19.2 0-25.6 6.4-6.4 19.2-6.4 25.6 0l160 153.6c6.4 6.4 6.4 19.2 0 25.6 0 6.4-6.4 6.4-12.8 6.4z" fill="" p-id="5110"></path></svg>