<?xml version="1.0" encoding="utf-8"?>
<svg version="1.1" xmlns:xlink="http://www.w3.org/1999/xlink" width="24px" height="12px" xmlns="http://www.w3.org/2000/svg">
  <g transform="matrix(1 0 0 1 -1214 -773 )">
    <path d="M 23.5546875 0.395833333333334  C 23.8515625 0.659722222222221  24 0.972222222222219  24 1.33333333333333  C 24 1.69444444444444  23.8515625 2.00694444444444  23.5546875 2.27083333333333  L 13.0546875 11.6041666666667  C 12.7578125 11.8680555555556  12.40625 12  12 12  C 11.59375 12  11.2421875 11.8680555555556  10.9453125 11.6041666666667  L 0.4453125 2.27083333333333  C 0.1484375 2.00694444444444  0 1.69444444444444  0 1.33333333333333  C 0 0.972222222222219  0.1484375 0.659722222222221  0.4453125 0.395833333333334  C 0.7421875 0.131944444444443  1.09375 0  1.5 0  L 22.5 0  C 22.90625 0  23.2578125 0.131944444444443  23.5546875 0.395833333333334  Z " fill-rule="nonzero" fill="#000000" stroke="none" transform="matrix(1 0 0 1 1214 773 )" />
  </g>
</svg>