<?xml version="1.0" encoding="utf-8"?>
<svg version="1.1" xmlns:xlink="http://www.w3.org/1999/xlink" width="913px" height="600px" xmlns="http://www.w3.org/2000/svg">
  <defs>
    <linearGradient gradientUnits="userSpaceOnUse" x1="456" y1="0" x2="456" y2="599" id="LinearGradient1">
      <stop id="Stop2" stop-color="#ffffff" offset="0" />
      <stop id="Stop3" stop-color="#f2f2f2" offset="0" />
      <stop id="Stop4" stop-color="#e4e4e4" offset="1" />
      <stop id="Stop5" stop-color="#ffffff" offset="1" />
    </linearGradient>
    <mask fill="white" id="clip6">
      <path d="M 0 0  L 0 599  L 912 599  L 912 0  L 0 0  Z " fill-rule="evenodd" />
    </mask>
  </defs>
  <g transform="matrix(1 0 0 1 -267 -172 )">
    <path d="M 0 0  L 0 599  L 912 599  L 912 0  L 0 0  Z M 912 99.4085106382981  L 0 100.5  L 409.217587373168 100.5  L 912 99.4085106382981  Z " fill-rule="nonzero" fill="url(#LinearGradient1)" stroke="none" transform="matrix(1 0 0 1 267 172 )" />
    <path d="M 0 0  L 0 599  L 912 599  L 912 0  L 0 0  Z " stroke-width="2" stroke="#797979" fill="none" transform="matrix(1 0 0 1 267 172 )" mask="url(#clip6)" />
    <path d="M 0 100.5  L 409.217587373168 100.5  L 912 99.4085106382981  M 164.5 0  L 164.5 599  " stroke-width="1" stroke="#797979" fill="none" transform="matrix(1 0 0 1 267 172 )" />
  </g>
</svg>