<svg t="1571019735888" class="icon" viewBox="0 0 1024 1024" version="1.1" xmlns="http://www.w3.org/2000/svg" p-id="3383" width="32" height="32"><path d="M491.2 796.8v64h32v-64c118.4-6.4 212.8-104 212.8-224V448h-16v14.4h-48v-115.2c0-88-72-160-160-160s-160 72-160 160v115.2h-48V448h-16v124.8c0 116.8 89.6 212.8 203.2 224zM512 219.2c70.4 0 128 57.6 128 128v115.2H384v-115.2c0-72 57.6-128 128-128z m-4.8 491.2zM384 476.8h256v86.4c0 70.4-57.6 128-128 128s-128-57.6-128-128v-86.4z m139.2 304v-59.2c83.2-6.4 148.8-75.2 148.8-158.4v-86.4h48v96c0 112-86.4 201.6-196.8 208z m204.8-312z m-424 8h48v86.4c0 80 60.8 147.2 137.6 158.4v59.2c-105.6-11.2-187.2-99.2-187.2-208v-96z" fill="#707070" p-id="3384"></path><path d="M473.6 329.6l-40-40c-3.2 4.8-6.4 9.6-8 14.4l36.8 36.8-46.4 46.4v17.6l3.2 3.2 56-56 30.4 30.4-44.8 44.8h22.4l33.6-33.6 33.6 33.6h22.4L528 382.4l30.4-30.4 52.8 52.8v-22.4l-41.6-41.6 33.6-33.6c-1.6-4.8-4.8-9.6-8-14.4l-36.8 36.8-30.4-30.4 35.2-35.2c-4.8-3.2-9.6-4.8-16-8l-32 32-33.6-33.6c-4.8 1.6-11.2 4.8-16 6.4l38.4 38.4-30.4 30.4z m70.4 11.2l-30.4 30.4-30.4-30.4 30.4-30.4 30.4 30.4z" fill="#707070" p-id="3385"></path></svg>